<?xml version="1.0" encoding="iso-8859-1"?>
<!-- Uploaded to: SVG Repo, www.svgrepo.com, Generator: SVG Repo Mixer Tools -->
<svg fill="#6466E9" height="800px" width="800px" version="1.1" id="Capa_1" xmlns="http://www.w3.org/2000/svg" xmlns:xlink="http://www.w3.org/1999/xlink" 
	 viewBox="0 0 489.2 489.2" xml:space="preserve">
<g>
	<g>
		<g>
			<path d="M244.6,0C109.5,0,0,109.5,0,244.6s109.5,244.6,244.6,244.6s244.6-109.5,244.6-244.6S379.7,0,244.6,0z M244.6,436.8
				c-106,0-192.2-86.2-192.2-192.2S138.6,52.4,244.6,52.4s192.2,86.2,192.2,192.2S350.6,436.8,244.6,436.8z"/>
			<g>
				<path d="M121.1,240.3c-7.9-1.3-12.4-10.1-10.5-17.9c1.2-3.9,27.6-99.4,115.7-107.2c7.8-0.8,15.1,5,15.5,13.2
					c0.8,8.2-5,15.1-13.2,15.5c-67.6,5.8-89.3,85-89.7,85.8C137.4,236.4,131,242,121.1,240.3z"/>
			</g>
			<g>
				<path d="M161.9,354.1c-6.6-4.7-7.8-14-3.1-20.2c4.7-6.6,14-7.8,20.2-3.1l0,0c12,8.9,48.9,29.5,73,16.3c7-3.9,15.9-1.2,19.8,5.8
					s1.2,15.9-5.8,19.8C221.9,397.6,163.8,355.6,161.9,354.1z"/>
			</g>
			<g>
				<path d="M217.8,274.1c-5.4-5.8-5-15.1,1.2-20.6c5.8-5.4,15.1-5,20.6,1.2c1.2,1.9,45.4,48.5,98.2,11.3c6.6-4.7,15.5-3.1,20.2,3.5
					s3.1,15.5-3.5,20.2C288.1,335.1,231.8,289.6,217.8,274.1z"/>
			</g>
			<g>
				<path d="M260.5,206.5c-5,0-9.7-2.3-12.4-7c-4.3-7-1.9-15.9,4.7-19.8c2.3-1.6,60.2-36.5,112.2,0.4c6.6,4.7,8.2,13.6,3.5,20.2
					c-4.7,6.6-13.6,8.2-20.2,3.5C308.5,176.7,268.8,206.5,260.5,206.5z"/>
			</g>
		</g>
	</g>
</g>
</svg>